# xmcd
#
# Track frame offsets:
#	150
#	22084
#	56788
#	80963
#	97646
#	125361
#	143623
#	177445
#	193891
#	219106
#	235378
#	257576
#	275861
#	307202
#	324093
#
# Disc length: 4726
#
# Revision: 1
# Processed by: cddbd v1.5.1PL0 Copyright (c) Steve Scherf et al.
# Submitted via: ExactAudioCopy v0.95a5
# Normalized: r0:DSWAP,TDELIM( - )
#
DISCID=dc12740f
DTITLE=Various Artist - Electro Mix 1
DYEAR=2000
DGENRE=A Cappella
TTITLE0=Chemical Brothers - Hey Boy Hey Girl
TTITLE1=Wolfsheim - Dream Of You
TTITLE2=Daft Punk - One More Time
TTITLE3=Eiffel 65 - Blue
TTITLE4=Zombie Nation - Kernkraft 400
TTITLE5=Daft Punk - Around The World
TTITLE6=Darude - Sandstorm
TTITLE7=Gorillaz - Clint Eastwood
TTITLE8=Daft Punk - Veridis Quo
TTITLE9=Kosmonova - Ayla
TTITLE10=Looper - Mondo 77
TTITLE11=Redned - The Spirit Of The Hawk
TTITLE12=Chemical Brothers - Where Do I Begin
TTITLE13=Eiffel 65 - Move Your Body
TTITLE14=Wolfsheim - The Sparrows And The Nightingales
EXTD=
EXTT0=
EXTT1=
EXTT2=
EXTT3=
EXTT4=
EXTT5=
EXTT6=
EXTT7=
EXTT8=
EXTT9=
EXTT10=
EXTT11=
EXTT12=
EXTT13=
EXTT14=
PLAYORDER=
